<?xml version="1.0" encoding="UTF-8" standalone="no"?>
<svg
   xmlns:dc="http://purl.org/dc/elements/1.1/"
   xmlns:cc="http://creativecommons.org/ns#"
   xmlns:rdf="http://www.w3.org/1999/02/22-rdf-syntax-ns#"
   xmlns:svg="http://www.w3.org/2000/svg"
   xmlns="http://www.w3.org/2000/svg"
   xmlns:sodipodi="http://sodipodi.sourceforge.net/DTD/sodipodi-0.dtd"
   xmlns:inkscape="http://www.inkscape.org/namespaces/inkscape"
   id="Layer_1"
   enable-background="new 0 0 512 512"
   height="512"
   viewBox="0 0 512 512"
   width="512"
   version="1.1"
   sodipodi:docname="chat.svg"
   inkscape:version="1.0.1 (3bc2e813f5, 2020-09-07)">
  <metadata
     id="metadata885">
    <rdf:RDF>
      <cc:Work
         rdf:about="">
        <dc:format>image/svg+xml</dc:format>
        <dc:type
           rdf:resource="http://purl.org/dc/dcmitype/StillImage" />
      </cc:Work>
    </rdf:RDF>
  </metadata>
  <defs
     id="defs883" />
  <sodipodi:namedview
     pagecolor="#ffffff"
     bordercolor="#666666"
     borderopacity="1"
     objecttolerance="10"
     gridtolerance="10"
     guidetolerance="10"
     inkscape:pageopacity="0"
     inkscape:pageshadow="2"
     inkscape:window-width="1920"
     inkscape:window-height="1137"
     id="namedview881"
     showgrid="false"
     inkscape:zoom="1.4355469"
     inkscape:cx="256"
     inkscape:cy="256"
     inkscape:window-x="-8"
     inkscape:window-y="-8"
     inkscape:window-maximized="1"
     inkscape:current-layer="Layer_1" />
  <g
     id="g878"
     style="fill:#ffffff">
    <path
       d="m504.5 275.93c-4.143 0-7.5 3.358-7.5 7.5v101.237c0 5.051-4.109 9.161-9.16 9.161h-33.354c-4.88 0-8.85 3.97-8.85 8.85v48.157l-80.505-55.453c-1.481-1.017-3.214-1.554-5.01-1.554h-136.988c-5.051 0-9.16-4.109-9.16-9.161v-60.613h28.652c4.143 0 7.5-3.358 7.5-7.5s-3.357-7.5-7.5-7.5h-124.988c-1.52 0-3.003.461-4.254 1.323l-59.086 40.7v-34.523c0-4.142-3.358-7.5-7.5-7.5h-22.707c-5.012 0-9.09-4.078-9.09-9.09v-235.266c0-5.012 4.078-9.09 9.09-9.09h51.306c4.142 0 7.5-3.358 7.5-7.5s-3.358-7.5-7.5-7.5h-51.306c-13.283-.001-24.09 10.806-24.09 24.09v235.266c0 13.283 10.807 24.09 24.09 24.09h15.206v41.296c0 2.786 1.545 5.343 4.011 6.639 1.096.576 2.294.861 3.488.861 1.493 0 2.98-.445 4.255-1.324l68.919-47.472h79.003v60.613c0 13.322 10.838 24.161 24.16 24.161h135.078l88.558 61c1.509 1.039 3.259 1.565 5.017 1.565 1.408 0 2.821-.338 4.12-1.02 2.919-1.534 4.732-4.536 4.732-7.834v-53.711h27.203c13.322 0 24.16-10.838 24.16-24.161v-101.237c0-4.142-3.357-7.5-7.5-7.5z"
       id="path860"
       style="fill:#ffffff" />
    <path
       d="m487.84 202.032h-60.516v-137.334c0-13.284-10.807-24.09-24.09-24.09h-292.706c-4.142 0-7.5 3.358-7.5 7.5s3.358 7.5 7.5 7.5h292.707c5.012 0 9.09 4.078 9.09 9.09v235.266c0 5.012-4.078 9.09-9.09 9.09h-125.925c-4.143 0-7.5 3.358-7.5 7.5s3.357 7.5 7.5 7.5h125.925c13.283 0 24.09-10.807 24.09-24.09v-82.932h60.516c5.051 0 9.16 4.109 9.16 9.161v22.39c0 4.142 3.357 7.5 7.5 7.5s7.5-3.358 7.5-7.5v-22.39c-.001-13.323-10.839-24.161-24.161-24.161z"
       id="path862"
       style="fill:#ffffff" />
    <path
       d="m375.369 85.34h-323.274c-4.142 0-7.5 3.358-7.5 7.5s3.358 7.5 7.5 7.5h323.274c4.143 0 7.5-3.358 7.5-7.5s-3.357-7.5-7.5-7.5z"
       id="path864"
       style="fill:#ffffff" />
    <path
       d="m375.369 175.098h-51.216c-4.143 0-7.5 3.358-7.5 7.5s3.357 7.5 7.5 7.5h51.216c4.143 0 7.5-3.358 7.5-7.5s-3.357-7.5-7.5-7.5z"
       id="path866"
       style="fill:#ffffff" />
    <path
       d="m52.095 175.098c-4.142 0-7.5 3.358-7.5 7.5s3.358 7.5 7.5 7.5h237.339c4.143 0 7.5-3.358 7.5-7.5s-3.357-7.5-7.5-7.5z"
       id="path868"
       style="fill:#ffffff" />
    <path
       d="m52.095 264.43c-4.142 0-7.5 3.358-7.5 7.5s3.358 7.5 7.5 7.5h51.216c4.142 0 7.5-3.358 7.5-7.5s-3.358-7.5-7.5-7.5z"
       id="path870"
       style="fill:#ffffff" />
    <path
       d="m375.369 264.43h-237.339c-4.142 0-7.5 3.358-7.5 7.5s3.358 7.5 7.5 7.5h237.339c4.143 0 7.5-3.358 7.5-7.5s-3.357-7.5-7.5-7.5z"
       id="path872"
       style="fill:#ffffff" />
    <path
       d="m375.369 219.43h-323.274c-4.142 0-7.5 3.358-7.5 7.5s3.358 7.5 7.5 7.5h323.274c4.143 0 7.5-3.358 7.5-7.5s-3.357-7.5-7.5-7.5z"
       id="path874"
       style="fill:#ffffff" />
    <path
       d="m352.832 138.039c0-4.142-3.357-7.5-7.5-7.5h-293.274c-4.142 0-7.5 3.358-7.5 7.5s3.358 7.5 7.5 7.5h293.274c4.143 0 7.5-3.358 7.5-7.5z"
       id="path876"
       style="fill:#ffffff" />
  </g>
</svg>
