<?xml version="1.0" encoding="UTF-8" standalone="no"?>
<svg
   xmlns:dc="http://purl.org/dc/elements/1.1/"
   xmlns:cc="http://creativecommons.org/ns#"
   xmlns:rdf="http://www.w3.org/1999/02/22-rdf-syntax-ns#"
   xmlns:svg="http://www.w3.org/2000/svg"
   xmlns="http://www.w3.org/2000/svg"
   xmlns:sodipodi="http://sodipodi.sourceforge.net/DTD/sodipodi-0.dtd"
   xmlns:inkscape="http://www.inkscape.org/namespaces/inkscape"
   version="1.1"
   id="Capa_1"
   x="0px"
   y="0px"
   viewBox="0 0 512 512"
   style="enable-background:new 0 0 512 512;"
   xml:space="preserve"
   sodipodi:docname="cup.svg"
   inkscape:version="1.0.1 (3bc2e813f5, 2020-09-07)"><metadata
   id="metadata953"><rdf:RDF><cc:Work
       rdf:about=""><dc:format>image/svg+xml</dc:format><dc:type
         rdf:resource="http://purl.org/dc/dcmitype/StillImage" /><dc:title /></cc:Work></rdf:RDF></metadata><defs
   id="defs951" /><sodipodi:namedview
   pagecolor="#ffffff"
   bordercolor="#666666"
   borderopacity="1"
   objecttolerance="10"
   gridtolerance="10"
   guidetolerance="10"
   inkscape:pageopacity="0"
   inkscape:pageshadow="2"
   inkscape:window-width="1920"
   inkscape:window-height="1137"
   id="namedview949"
   showgrid="false"
   inkscape:zoom="1.0150849"
   inkscape:cx="202.8909"
   inkscape:cy="239.75011"
   inkscape:window-x="-8"
   inkscape:window-y="-8"
   inkscape:window-maximized="1"
   inkscape:current-layer="Capa_1"
   inkscape:document-rotation="0" />


<g
   id="g910"
   style="fill:#e01919;fill-opacity:1"
   transform="matrix(1.2202098,0,0,0.9627777,-56.801757,66.451334)">
	<g
   id="g908"
   style="fill:#e01919;fill-opacity:1">
		<path
   d="M 436,47 H 405.194 C 405.728,35.006 406,22.608 406,10 406,4.478 401.522,0 396,0 H 116 c -5.522,0 -10,4.478 -10,10 0,12.607 0.272,25.005 0.806,37 H 76 C 59.458,47 46,60.346 46,76.75 v 7.92 c 0,79.641 30.969,114.547 103.705,139.434 19.358,31.297 44.892,50.901 76.037,58.404 -1.051,26.16 -3.12744,52.4685 -15.45444,71.5325 -22.197,2.408 -36.07281,17.3102 -39.83281,39.0792 C 158.42975,397.0307 146,408.688 146,422 v 28.08466 c 0,5.522 8.32727,12.48345 13.84927,12.48759 l 192.26089,0.14427 c 5.522,0.004 13.51786,-6.06511 13.48616,-11.58696 L 365.42912,422 c -0.0764,-13.31167 -12.42975,-24.621 -24.45375,-28.532 -3.76,-21.769 -17.35137,-34.92971 -39.54837,-37.33771 -12.327,-19.064 -14.118,-47.46329 -15.169,-73.62329 31.165,-7.51 56.699,-27.121 76.051,-58.425 C 434.898,199.242 466,164.399 466,84.63 V 76.75 C 466,60.346 452.542,47 436,47 Z M 65.596324,84.17743 66,76.75 C 66.296531,71.293985 70.393,67 76,67 h 31.977 c 3.833,52.589 13.21,100.75313 27.961,134.91713 -52.403,-22.344 -73.622498,-57.3743 -70.341676,-117.7397 z M 335.71456,408.86531 c 5.51399,-0.012 14.80842,11.10395 14.85251,16.61768 l 0.16721,21.94071 -188.44503,0.6966 L 162.57469,422 c 0.0602,-5.51351 7.91132,-12.77437 13.42531,-12.78639 z M 295.99,371.999 c 0.006,0 0.011,10e-4 0.017,10e-4 h 0.012 c 13.029,0.009 24.135,8.367 28.261,20 H 187.72 c 4.126,-11.633 15.232,-19.991 28.26,-20 h 0.012 c 0.006,0 0.011,-10e-4 0.017,-10e-4 z m -68.16147,-20.98414 c 9.339,-20.328 13.19638,-42.46486 14.16938,-65.40886 3.401,0.256 10.49509,0.394 14.00209,0.394 3.508,0 10.60209,-0.138 14.00209,-0.393 0.973,22.944 3.61935,45.07986 12.95835,65.40786 z M 351.16931,214.36919 c -20.523,35.475 -54.26119,55.8104 -95.74019,55.8104 -41.476,0 -73.62806,-20.73646 -94.15706,-56.20246 -20.611,-35.601 -33.76181,-91.93343 -37.66981,-157.931429 -0.688,-11.714 -1.39344,-25.308198 -1.53944,-37.787198 l 267.58894,-0.696598 c -0.146,12.478 -0.565,27.465394 -1.254,39.176394 -3.907,65.983001 -16.62244,122.021891 -37.22844,157.630891 z M 448.82573,84.63 c 0,60.512 -21.57076,94.92313 -73.96976,117.26813 14.747,-34.164 25.33303,-85.27655 29.16603,-137.853548 L 436,64.537152 c 5.60655,0.08636 12.82573,6.252278 12.82573,11.720278 z"
   id="path906"
   style="fill:#e01919;fill-opacity:1"
   sodipodi:nodetypes="scsssscsssccccssssssccccssssssccsssccssssssccssssccsccccsccccccsccsss" />
	</g>
</g>
<g
   id="g916"
   style="fill:#e01919;fill-opacity:1;stroke-width:20.4094;stroke-miterlimit:4;stroke-dasharray:none"
   transform="translate(-0.28854057,57.039064)">
	<g
   id="g914"
   style="fill:#e01919;fill-opacity:1;stroke-width:20.4094;stroke-miterlimit:4;stroke-dasharray:none">
		<path
   d="m 322.57,115.83 c -1.177,-3.62 -4.306,-6.259 -8.072,-6.807 L 280.271,104.05 264.967,73.034 c -1.685,-3.414 -5.161,-5.575 -8.968,-5.575 -3.807,0 -7.283,2.161 -8.968,5.575 l -15.304,31.016 -34.227,4.973 c -3.767,0.548 -6.896,3.187 -8.072,6.807 -1.176,3.619 -0.195,7.594 2.53,10.251 l 24.767,24.14 -5.85,34.088 c -0.645,3.752 0.897,7.544 3.977,9.781 3.081,2.237 7.164,2.53 10.532,0.762 L 256,178.758 l 30.616,16.094 c 3.396,1.785 7.477,1.458 10.532,-0.762 3.079,-2.237 4.621,-6.029 3.977,-9.781 L 295.9716,149.5244 320.04,126.081 c 2.726,-2.657 3.706,-6.632 2.53,-10.251 z m -45.021,23.74 c -2.356,2.298 -3.433,5.608 -2.875,8.853 l 3.312,19.298 -17.333,-9.111 c -1.457,-0.766 -3.055,-1.148 -4.653,-1.148 -1.598,0 -3.196,0.383 -4.653,1.148 l -17.333,9.111 3.312,-19.298 c 0.558,-3.244 -0.519,-6.555 -2.875,-8.853 l -14.021,-13.667 19.379,-2.816 c 3.257,-0.474 6.073,-2.52 7.529,-5.472 L 256,100.06 l 8.662,17.556 c 1.456,2.952 4.272,4.998 7.529,5.472 l 19.379,2.815 z"
   id="path912"
   style="opacity:1;fill:#e01919;fill-opacity:1;stroke-width:20.4094;stroke-miterlimit:4;stroke-dasharray:none"
   sodipodi:nodetypes="ccccsccccccccccccccccccccscccccccccccc" />
	</g>
</g>
<g
   id="g918">
</g>
<g
   id="g920">
</g>
<g
   id="g922">
</g>
<g
   id="g924">
</g>
<g
   id="g926">
</g>
<g
   id="g928">
</g>
<g
   id="g930">
</g>
<g
   id="g932">
</g>
<g
   id="g934">
</g>
<g
   id="g936">
</g>
<g
   id="g938">
</g>
<g
   id="g940">
</g>
<g
   id="g942">
</g>
<g
   id="g944">
</g>
<g
   id="g946">
</g>
</svg>
