<?xml version="1.0" encoding="UTF-8" standalone="no"?>
<svg
   xmlns:dc="http://purl.org/dc/elements/1.1/"
   xmlns:cc="http://creativecommons.org/ns#"
   xmlns:rdf="http://www.w3.org/1999/02/22-rdf-syntax-ns#"
   xmlns:svg="http://www.w3.org/2000/svg"
   xmlns="http://www.w3.org/2000/svg"
   xmlns:sodipodi="http://sodipodi.sourceforge.net/DTD/sodipodi-0.dtd"
   xmlns:inkscape="http://www.inkscape.org/namespaces/inkscape"
   version="1.1"
   id="Capa_1"
   x="0px"
   y="0px"
   viewBox="0 0 512.00001 512.00001"
   xml:space="preserve"
   sodipodi:docname="heart.svg"
   inkscape:version="1.0.1 (3bc2e813f5, 2020-09-07)"
   width="512"
   height="512"><metadata
   id="metadata917"><rdf:RDF><cc:Work
       rdf:about=""><dc:format>image/svg+xml</dc:format><dc:type
         rdf:resource="http://purl.org/dc/dcmitype/StillImage" /><dc:title /></cc:Work></rdf:RDF></metadata><defs
   id="defs915" /><sodipodi:namedview
   pagecolor="#ffffff"
   bordercolor="#666666"
   borderopacity="1"
   objecttolerance="10"
   gridtolerance="10"
   guidetolerance="10"
   inkscape:pageopacity="0"
   inkscape:pageshadow="2"
   inkscape:window-width="1920"
   inkscape:window-height="1137"
   id="namedview913"
   showgrid="false"
   inkscape:zoom="0.8733365"
   inkscape:cx="167.71349"
   inkscape:cy="284.09938"
   inkscape:window-x="-8"
   inkscape:window-y="-8"
   inkscape:window-maximized="1"
   inkscape:current-layer="Capa_1"
   inkscape:document-rotation="0" />
<g
   id="g880"
   style="fill:#e01919;fill-opacity:1"
   transform="matrix(1.2136073,0,0,1.2062964,0,-6.4723709)">
	<g
   id="g878"
   style="fill:#e01919;fill-opacity:1">
		<path
   d="M 413.6,204 H 378 c 14.8,-33.6 13.2,-60.8 7.6,-79.2 -9.6,-32.8 -42,-68.4 -90,-68.4 -12.8,0 -25.6,2.4 -38.8,7.2 C 234,72 218.8,81.2 212,86 205.2,81.2 190.4,72 167.2,63.6 154,58.8 140.8,56.4 128.4,56.4 80.4,56.4 48,92 38.4,124.8 32.8,144.4 30.8,174 49.6,211.2 H 6.4 c -3.6,0 -6.4,2.8 -6.4,6.4 0,3.6 2.8,6.4 6.4,6.4 h 50.8 c 2,3.6 4.4,7.2 7.2,10.8 41.6,60 132,125.2 148.4,129.2 v 0.4 c 0,0 0.4,0 0.8,-0.4 0.4,0 0.8,0 1.2,0 v -0.4 c 14,-6.8 100.8,-62.8 146.4,-129.2 4.4,-6 8,-12 11.2,-18 h 42 c 3.6,0 6.4,-2.8 6.4,-6.4 0,-3.6 -3.6,-6 -7.2,-6 z m -64,23.6 c -42.4,62 -120.4,112 -137.2,122.8 C 195.2,339.6 117.6,289.2 74.8,227.6 74,226.4 73.2,225.2 72.4,224 h 58.8 c 2.4,0 4.8,-1.2 6,-3.6 l 26.8,-52.8 42,107.6 c 0.8,2.4 3.6,4 6,4 0,0 0,0 0.4,0 2.8,0 5.2,-2 6,-4.8 l 36.8,-126 19.6,63.6 c 0.8,2.4 2.8,4 5.2,4.4 2.4,0.4 4.8,-0.8 6.4,-2.8 l 15.6,-22.8 13.2,22.4 c 1.2,2 3.2,3.2 5.6,3.2 h 36 c -2.4,4 -4.8,7.6 -7.2,11.2 z M 364,204 h -39.2 l -16.4,-28 c -1.2,-2 -3.2,-3.2 -5.6,-3.2 -2.4,0 -4.4,0.8 -5.6,2.8 l -13.6,20 -22,-71.6 c -0.8,-2.8 -3.6,-4.4 -6.4,-4.8 -2.8,0 -5.6,2 -6.4,4.8 L 211.6,252.4 171.2,149.2 c -0.8,-2.4 -3.2,-4 -5.6,-4 -2.8,0 -4.8,1.2 -6,3.6 l -31.6,62 H 64.4 C 48.4,181.6 44,153.6 51.2,128.4 c 8.4,-28.4 36,-58.8 77.6,-58.8 11.2,0 22.8,2.4 34.4,6.4 29.2,10.8 44.8,23.2 45.2,23.2 2.4,2 5.6,2 8,0 0,0 15.6,-12.4 45.2,-23.2 11.6,-4.4 23.2,-6.4 34.4,-6.4 41.2,0 69.2,30.4 77.6,58.8 6.8,23.2 3.2,48.8 -9.6,75.6 z"
   id="path876"
   style="fill:#e01919;fill-opacity:1" />
	</g>
</g>
<g
   id="g882">
</g>
<g
   id="g884">
</g>
<g
   id="g886">
</g>
<g
   id="g888">
</g>
<g
   id="g890">
</g>
<g
   id="g892">
</g>
<g
   id="g894">
</g>
<g
   id="g896">
</g>
<g
   id="g898">
</g>
<g
   id="g900">
</g>
<g
   id="g902">
</g>
<g
   id="g904">
</g>
<g
   id="g906">
</g>
<g
   id="g908">
</g>
<g
   id="g910">
</g>
</svg>
