<?xml version="1.0" encoding="UTF-8" standalone="no"?>
<svg
   xmlns:dc="http://purl.org/dc/elements/1.1/"
   xmlns:cc="http://creativecommons.org/ns#"
   xmlns:rdf="http://www.w3.org/1999/02/22-rdf-syntax-ns#"
   xmlns:svg="http://www.w3.org/2000/svg"
   xmlns="http://www.w3.org/2000/svg"
   xmlns:sodipodi="http://sodipodi.sourceforge.net/DTD/sodipodi-0.dtd"
   xmlns:inkscape="http://www.inkscape.org/namespaces/inkscape"
   version="1.1"
   id="Capa_1"
   x="0px"
   y="0px"
   viewBox="0 0 512.071 512.07098"
   xml:space="preserve"
   width="512"
   height="512"
   sodipodi:docname="shoe.svg"
   inkscape:version="1.0.1 (3bc2e813f5, 2020-09-07)"><metadata
   id="metadata873"><rdf:RDF><cc:Work
       rdf:about=""><dc:format>image/svg+xml</dc:format><dc:type
         rdf:resource="http://purl.org/dc/dcmitype/StillImage" /><dc:title /></cc:Work></rdf:RDF></metadata><defs
   id="defs871" /><sodipodi:namedview
   pagecolor="#ffffff"
   bordercolor="#666666"
   borderopacity="1"
   objecttolerance="10"
   gridtolerance="10"
   guidetolerance="10"
   inkscape:pageopacity="0"
   inkscape:pageshadow="2"
   inkscape:window-width="1920"
   inkscape:window-height="1137"
   id="namedview869"
   showgrid="false"
   inkscape:zoom="0.71777344"
   inkscape:cx="257.32868"
   inkscape:cy="311.04361"
   inkscape:window-x="-8"
   inkscape:window-y="-8"
   inkscape:window-maximized="1"
   inkscape:current-layer="g866"
   inkscape:document-rotation="0" />
<g
   id="g866">
	<path
   id="path854"
   style="fill:#e01919;fill-opacity:1;stroke-width:0.956668"
   d="m 122.5573,3.9927612 c -0.0481,0.00201 -0.0944,0.00375 -0.0781,0.026816 0.0272,0.038595 0.0655,0.068961 0.0957,0.1054793 -0.006,-0.044141 -0.0116,-0.088199 -0.0176,-0.1322953 z m 25.67543,25.5348098 c -0.0256,0.06063 -0.0759,0.145856 -0.082,0.184141 -0.01,0.05939 0.0608,-0.108349 0.0781,-0.166264 0.002,-0.0059 0.002,-0.01199 0.004,-0.01788 z m 157.53552,31.802751 c -0.0425,-0.02273 -0.10276,0.01654 -0.1719,0.08939 0.0745,-0.0036 0.15321,-8.2e-5 0.22074,-0.01609 -0.0125,-0.03603 -0.0287,-0.06254 -0.0488,-0.0733 z m 41.89058,22.863872 c -4.68266,-0.04787 -9.35279,0.625627 -13.7988,1.991582 l -0.041,-0.05547 c -0.24143,0.04742 -0.48749,0.07826 -0.73448,0.07149 -0.0405,-9.15e-4 -0.0808,-0.0055 -0.12111,-0.0092 -0.0855,0.0281 -0.16362,0.05996 -0.26567,0.07863 -0.01,0.0018 -0.0195,0.0037 -0.0293,0.0055 -0.0218,0.0073 -0.0421,0.01895 -0.0645,0.02499 -0.0325,0.0092 -0.0715,0.0046 -0.10743,0.0073 -0.015,0.0027 -0.0298,0.0064 -0.0449,0.0092 -0.077,0.101795 -0.17039,0.202958 -0.29691,0.303921 -0.28282,0.225687 -0.58869,0.4433 -0.93959,0.573883 -0.0143,0.0055 -0.0265,0.01464 -0.041,0.01968 l -0.002,0.0018 c -0.17508,0.123444 -0.40054,0.23376 -0.61726,0.268168 -0.10686,0.01702 -0.21777,-2.01e-4 -0.32623,0 -0.0874,1.65e-4 -0.15556,-0.0055 -0.21292,-0.01428 -0.003,0.0018 -0.007,0.0018 -0.01,0.0037 -0.0147,0.0519 -0.034,0.09613 -0.0723,0.110848 -0.30292,0.116449 -0.39635,0.149355 -0.69932,0.18056 -10e-4,-2.11e-4 -0.004,2.01e-4 -0.006,0 -0.0165,0.01254 -0.0297,0.0293 -0.0469,0.0411 -0.0652,0.04495 -0.30459,-0.01666 -0.12697,0.02325 -0.19386,0.104972 -0.35521,0.127919 -0.58016,0.169833 -0.19129,0.0356 -0.28499,0.02142 -0.34575,-0.01071 -0.0254,9.15e-4 -0.0507,0.0018 -0.0762,0.0018 -0.0266,0.01446 -0.0555,0.03286 -0.0723,0.03221 -0.01,-3.84e-4 -0.0138,-0.0027 -0.0234,-0.0037 -0.0745,0.06975 -0.14482,0.103113 -0.22073,0.137658 -0.0943,0.247719 -0.30669,0.477927 -0.70323,0.598899 -0.17496,0.05337 -0.32582,0.100293 -0.50202,0.132303 -0.033,0.01693 -0.0626,0.03689 -0.0938,0.05538 -0.1372,0.05867 -0.26436,0.09976 -0.39068,0.132294 -0.0666,0.02736 -0.16731,0.05465 -0.26371,0.07332 -9.4e-4,9.15e-4 -5e-5,0.0027 -0.002,0.0037 -0.0169,0.02169 -0.0458,0.02316 -0.0781,0.01968 -0.0589,0.01812 -0.11873,0.03405 -0.17775,0.05181 -0.006,9.15e-4 -0.0233,0.0055 -0.0312,0.0073 -0.005,0.0055 -0.009,0.0119 -0.0156,0.01611 -0.0646,0.04202 -0.13619,0.0746 -0.21096,0.100119 -0.0428,0.05373 -0.0789,0.0811 -0.0898,0.02142 -0.0392,0.01007 -0.0773,0.0238 -0.1172,0.03039 -0.003,0.0018 -0.0102,0.0037 -0.0137,0.0055 -0.001,0.0018 -0.002,0.0037 -0.004,0.0055 -0.0347,0.03753 -0.0906,0.04925 -0.14651,0.05904 -0.054,0.04367 -0.17817,0.100706 -0.40434,0.187719 0.0101,-0.0055 0.0481,-0.03616 0.12501,-0.09116 -0.0349,0.01 -0.0957,0.01647 -0.14846,0.01785 l -0.01,0.01071 c 7.9e-4,9.15e-4 0.01,-0.0055 0.008,-0.0018 -0.0113,0.01565 -0.0338,0.02032 -0.0508,0.0304 -0.0594,0.04083 -0.11887,0.07881 -0.18752,0.121566 l -0.008,0.01071 c 0.0702,0.01144 -0.0966,0.105319 0.0781,0.01071 0.0161,0.01675 -0.1345,0.09768 -0.27543,0.160899 -0.0512,0.0433 -0.0994,0.09071 -0.15823,0.125145 -0.0486,0.02837 -0.10463,0.03441 -0.16408,0.03579 -0.0108,0.0037 -0.0206,0.01117 -0.0312,0.01428 -0.0142,0.0037 -0.0271,0.0018 -0.041,0.0055 0.0197,-0.0055 0.038,-0.01153 0.0605,-0.01968 -0.0164,2.38e-4 -0.0324,0.0018 -0.0488,0.0018 -0.006,0.0055 -0.0112,0.01 -0.0156,0.01428 v 0.0099 0.0018 0.0018 0.0018 c -0.0703,0.05858 -0.14767,0.09338 -0.22855,0.107269 -0.0601,0.02957 -0.13724,0.06883 -0.27346,0.15732 -0.0563,0.03653 0.12813,-0.04797 0.19533,-0.06261 0.0485,-0.01053 -0.0869,0.0465 -0.13088,0.06792 -0.0572,0.02782 -0.11435,0.05318 -0.1719,0.08046 -0.003,0.01153 10e-4,0.02444 -0.002,0.03579 -0.0129,0.04668 -0.11937,0.105301 -0.22855,0.153751 v 0.0018 c -0.0167,0.06407 -0.2052,0.174555 -0.17581,0.114418 0.0162,-0.03314 0.0469,-0.05538 0.0801,-0.07689 -0.0358,0.01382 -0.0575,0.02233 -0.0801,0.03039 -0.0505,0.08952 -0.0987,0.17992 -0.15822,0.264588 -0.0708,0.100826 -0.17797,0.180332 -0.27348,0.259225 -0.0811,0.05748 -0.13642,0.08183 -0.19533,0.112633 -0.028,0.03744 -0.0572,0.07396 -0.0859,0.110839 -0.007,0.0037 -0.0131,0.0082 -0.0195,0.01254 -0.0628,0.08531 -0.16783,0.185935 -0.20511,0.221687 -0.0696,0.05254 -0.13097,0.112313 -0.19338,0.171627 -0.11663,0.11223 -0.21671,0.162839 -0.3477,0.209174 -0.0328,0.04357 -0.0581,0.09197 -0.0977,0.1305 -0.0753,0.07332 -0.16215,0.109832 -0.25394,0.134089 -0.0204,0.01766 -0.0403,0.03597 -0.0605,0.05364 -0.005,0.01281 -0.008,0.02663 -0.0137,0.03936 -0.039,0.08256 -0.1079,0.14986 -0.18558,0.209174 l 0.17776,0.241347 c -0.3637,0.274585 -0.71262,0.566203 -1.07046,0.847406 -0.0712,0.111973 -0.1402,0.185905 -0.19339,0.153749 -13.37544,10.585133 -22.76424,25.662653 -35.2373,37.160713 -11.727,10.81176 -25.53848,18.78081 -42.06248,21.64819 -1.229,-15.92108 -6.75782,-38.54334 -28.25783,-39.4741 l -0.15431,-0.20739 c -0.0207,0.0702 -0.1021,0.12895 -0.25394,0.10905 -0.16557,-0.0217 -0.36779,-0.013 -0.51374,-0.10011 -0.0269,-0.016 -0.0383,-0.0306 -0.0488,-0.0429 -0.0562,0.0145 -0.11605,0.007 -0.17971,-0.0197 -0.0193,0.004 -0.0406,0.003 -0.0605,0.004 -0.11115,0.005 -0.0385,0.004 -0.1426,0.007 -0.002,0 -0.0576,9.2e-4 -0.0606,-0.002 -0.0222,-0.021 -0.0403,-0.0453 -0.0606,-0.0679 -0.0169,0.005 -0.0334,0.009 -0.0508,0.0125 -0.047,0.008 -0.10095,9.2e-4 -0.14845,-0.002 -0.0948,-0.003 -0.19039,2.5e-4 -0.2852,0 -0.0757,-9.1e-4 -0.15079,-5e-5 -0.22659,0 -0.12456,1.8e-4 -0.24855,0 -0.3731,0 -0.0343,-0.006 -0.0692,-0.0114 -0.10353,-0.0178 -0.02,-0.006 -0.0399,-0.016 -0.0605,-0.0197 -0.0201,-0.005 -0.04,0.005 -0.0606,0.002 -0.0686,-0.008 -0.10899,-0.0179 -0.15236,-0.025 -0.0312,-5e-5 -0.0625,1.4e-4 -0.0938,0 -0.0803,0 -0.16021,-0.005 -0.24027,-0.007 -0.007,0.004 -0.0145,0.007 -0.0215,0.0107 -0.0828,0.0174 -0.16519,0.0347 -0.24809,0.0518 -0.005,0.005 -0.007,0.005 -0.0117,0.0107 -0.10394,0.0162 -0.20806,0.0351 -0.31254,0.0482 -0.003,4.2e-4 -0.008,0.002 -0.0117,0.002 -0.001,6e-4 -0.0107,-1.4e-4 -0.0117,0.002 -0.042,0.0189 -0.0848,0.0366 -0.12698,0.0554 -0.0333,0.0146 -0.0735,0.0132 -0.10939,0.0214 -0.0421,0.009 -0.0827,0.0207 -0.12501,0.0285 -0.0312,0.006 -0.0647,0.004 -0.0938,0.0161 -0.0487,0.02 -0.0898,0.0523 -0.13479,0.0786 -0.47157,0.11038 -0.52597,0.1178 -0.55085,0.11978 0.0345,-0.002 0.069,-0.0102 0.10353,-0.0125 0.0215,-0.002 0.0837,0.005 0.0625,0 -0.0711,-0.0158 -0.18867,0.0129 -0.16604,0.0125 h -0.002 -0.0117 -0.006 c -0.007,3.5e-4 -0.0143,0.002 -0.0215,0.002 -0.01,-3.7e-4 -0.0115,-0.0215 -0.0215,-0.0197 -0.0363,0.006 -0.0678,0.029 -0.10158,0.0429 -0.091,0.0266 -0.17265,0.0326 -0.25003,0.0465 -0.17588,0.23507 -0.33935,0.42612 -0.13283,0.025 -0.0284,0.004 -0.05,0.0132 -0.082,0.0161 -0.0493,0.005 -0.0993,-0.005 -0.14845,0.005 -0.0475,0.005 -0.0953,0.0133 -0.1426,0.0197 -0.0126,5.9e-4 -0.0165,-7.5e-4 -0.0293,0 -0.0339,0.0123 -0.0693,0.0258 -0.10353,0.0375 -0.17277,0.0592 -0.33301,0.10086 -0.50789,0.1323 -0.0181,-0.036 -0.0346,-0.017 -0.0762,0.0178 v 0.002 c -0.0235,0.0196 -0.036,0.0394 -0.10548,0.059 -0.12234,0.0348 -0.25082,0.0517 -0.37701,0.0733 -0.004,0.002 -0.008,0.004 -0.0117,0.005 -0.0237,0.0215 -0.0482,0.0434 -0.0742,0.0626 -0.0627,0.046 -0.12863,0.0876 -0.19534,0.12872 -0.017,0.0104 -0.0363,0.0166 -0.0547,0.025 0.026,-0.0285 0.1129,-0.10354 0.0781,-0.084 -0.0424,0.024 -0.065,0.0694 -0.10354,0.0983 -0.0737,0.0552 -0.13402,0.0849 -0.21292,0.118 -0.041,0.006 0.0226,-0.005 -0.0898,0.0518 -0.0972,0.0493 -0.20671,0.0835 -0.32036,0.0983 -0.10706,0.0592 -0.2605,0.13536 -0.37506,0.12156 -0.0152,0.003 -0.0301,0.006 -0.0449,0.0107 -0.0787,0.022 -0.1541,0.0552 -0.2344,0.0715 -0.14713,0.0298 -0.29583,0.0491 -0.44539,0.0662 -0.0126,9.1e-4 -0.0642,-0.008 -0.10743,-0.0161 l -0.01,0.005 c -0.10883,0.0979 -0.24248,0.16515 -0.38483,0.21274 -0.0332,0.003 -0.0643,0.006 -0.0976,0.009 -0.0121,0.006 -0.021,0.01 -0.0625,0.0304 -0.17123,0.0728 -0.25629,0.0948 -0.36529,0.0894 -0.027,0.0194 -0.0539,0.0417 -0.0859,0.0518 -0.0571,0.018 -0.11687,0.0282 -0.1758,0.0411 l -0.0117,0.002 h -0.004 c -0.036,0.008 -0.0713,0.0179 -0.10743,0.0251 -0.002,0.003 -0.008,0.007 -0.0117,0.0107 0.0496,-0.011 0.0621,-0.007 0.0918,-0.0161 -0.01,0.009 -0.0172,0.0188 -0.0293,0.025 -0.0376,0.019 -0.0792,0.0319 -0.11916,0.0465 -0.13274,0.11993 -0.28459,0.20991 -0.45124,0.28248 -0.009,0.006 -0.016,0.0155 -0.0254,0.0214 -0.0596,0.038 -0.13183,0.0537 -0.19923,0.0786 h -0.004 c -0.0551,0.0428 -0.10709,0.0894 -0.16604,0.12873 -0.004,0.003 -0.007,0.008 -0.0117,0.0107 -0.001,7.7e-4 -0.003,-4e-5 -0.004,0.002 -0.0125,0.008 -0.0224,0.0187 -0.0352,0.0268 -0.0434,0.0179 -0.087,0.0363 -0.13087,0.0536 -0.002,0.002 -0.008,0.01 -0.006,0.009 -0.0114,0.005 -0.0259,0.0125 -0.0371,0.0161 -0.002,5.2e-4 -0.004,0.002 -0.006,0.004 -0.0416,0.0252 -0.1281,0.0879 -0.0801,0.0572 v -0.004 c -0.042,0.0395 -0.0858,0.082 -0.13479,0.11442 -0.0632,0.0468 -0.11352,0.11218 -0.18753,0.14302 -0.0457,0.019 -0.096,0.0253 -0.14455,0.0375 -0.049,0.0672 -0.10827,0.12632 -0.18557,0.17163 -0.0105,0.002 -0.0208,0.009 -0.0312,0.0107 -0.0725,0.0901 -0.17862,0.21152 -0.25198,0.22525 -0.0277,0.0232 -0.0592,0.0406 -0.0879,0.0626 -4.2e-4,9.2e-4 5e-5,0.01 -0.002,0.0107 -0.0327,0.0508 -0.0854,0.0868 -0.14065,0.11978 -0.0381,0.0485 -0.0851,0.0923 -0.13088,0.13588 -0.0117,0.0112 -0.0244,0.0241 -0.041,0.0268 -0.01,0.002 0.0236,-0.0287 0.0156,-0.0232 -0.0367,0.0269 -0.0688,0.0586 -0.10354,0.0876 -0.0397,0.0223 -0.0791,0.0444 -0.11916,0.0662 -0.002,0.002 -0.009,0.007 -0.008,0.005 0.005,-0.007 0.0246,-0.0269 0.0176,-0.0214 -0.0557,0.0462 -0.0596,0.0545 -0.11525,0.11084 -0.0188,0.0186 -0.0397,0.0371 -0.0566,0.0572 -0.0357,0.0425 -0.0486,0.10942 -0.10158,0.1323 -0.0681,0.0293 -0.142,0.0445 -0.21487,0.0626 -0.001,9.1e-4 -0.002,0.003 -0.004,0.004 -0.005,0.0137 -0.0139,0.0382 -0.0195,0.0482 0.0653,-0.0297 0.0825,-0.0422 0.008,0.0125 -0.0123,0.008 -0.0249,0.0154 -0.0371,0.0233 -0.0156,0.0192 -0.0271,0.0382 -0.0527,0.0626 -0.0339,0.0329 -0.0763,0.0793 -0.12306,0.12156 -0.002,0.003 0.001,0.008 -0.002,0.0107 -0.0677,0.0751 -0.14182,0.12558 -0.21292,0.1752 -3.2e-4,0.0184 1.9e-4,0.0231 0,0.0447 -0.006,0.005 -0.0307,0.0364 -0.0664,0.0804 0.004,-0.003 0.008,-0.005 0.0117,-0.007 0.006,-0.005 0.0321,-0.0406 0.0547,-0.0697 -1.3e-4,0.0149 -2e-5,0.0128 0,0.0286 l -0.002,-0.002 c 2.4e-4,0.53547 -0.31849,0.77003 -0.61142,0.72405 -6.83296,6.06543 -11.61791,17.41189 -15.24821,35.96111 -1.706,8.71468 13.06072,11.13625 14.76572,2.42066 1.31802,-6.73141 4.37511,-32.27665 17.18012,-29.58592 8.49501,1.78834 12.03178,20.82182 11.74577,33.11498 -0.001,0.0311 0.002,0.06 0.002,0.0912 0,0.0339 -0.004,0.0671 -0.004,0.1019 0.18601,32.47183 -4.70064,79.15521 -29.01966,117.14761 -14.36601,22.44383 -28.99121,31.40662 -29.31851,31.60432 -0.93701,0.55189 -1.68827,1.26572 -2.25227,2.07203 -22.023,12.57323 -41.03989,14.71077 -53.94889,13.98042 l 0.26371,-0.118 c 11.12904,-4.98417 21.37107,-12.35628 30.67808,-22.04507 l 11.31798,4.76442 c 8.803,3.70297 15.05241,-8.77405 6.2704,-12.47153 l -8.09487,-3.4075 c 6.16599,-8.08227 11.39656,-16.73024 15.94557,-25.65816 l 16.21514,5.17918 c 9.12,2.91314 14.0831,-10.04183 4.94208,-12.96137 l -15.23696,-4.87801 c 3.85902,-8.99933 7.29528,-18.61047 10.25728,-28.71169 l 16.74256,4.13154 c 9.15701,2.25966 13.28288,-10.94269 3.90288,-13.25636 l -17.06877,-4.23345 c 1.979,-8.14999 3.67371,-16.54579 5.04171,-25.1415 1.394,-8.76226 -13.44885,-10.74133 -14.84385,-1.97906 -5.45001,34.2455 -15.83435,69.90107 -37.58334,98.71385 -22.45239,29.74543 -60.715539,39.67234 -93.612592,57.40371 -26.730436,14.39891 -50.5785506,31.27713 -44.1135397,56.98001 4.9020064,19.48799 20.3689627,31.14226 40.6150077,39.50091 48.584056,20.05967 107.742584,14.14893 158.439934,5.22924 47.81109,-8.41172 100.42875,-37.6425 134.05375,-74.46981 30.47701,-33.38154 75.64016,-40.9334 116.51616,-58.71237 8.737,-3.8018 2.29861,-16.20182 -6.43839,-12.40001 -43.143,18.77288 -89.40517,27.06251 -121.58717,62.31115 -31.54201,34.54661 -80.7538,61.94142 -125.37481,69.79121 -43.27009,7.61276 -103.390155,13.15124 -146.188246,-3.01419 87.728016,13.09032 180.286136,-15.9789 243.793576,-71.95441 30.719,-27.07571 65.17455,-47.40108 102.79355,-65.12512 28.43401,-13.39692 50.10948,-31.39896 62.68448,-52.06183 8.176,-13.43444 12.01787,-27.18178 11.48987,-40.66655 7.40001,4.48912 15.63416,10.85637 19.69023,18.29074 9.465,17.34881 9.10331,44.01356 -20.29969,66.82529 -7.40499,5.74571 2.36861,16.15994 9.69861,10.47279 29.68136,-23.02772 39.10991,-55.77691 24.02091,-83.43195 -8.627,-15.81032 -28.47722,-26.09497 -36.32731,-29.6753 -0.793,-2.38505 -1.72207,-4.75352 -2.80507,-7.10104 -11.064,-23.99426 -59.64039,-57.28371 -98.44139,-80.986257 -6.88938,-4.208265 -14.72799,-6.290135 -22.53241,-6.369852 z m -22.8899,3.12503 c -0.0143,0.0082 -0.0287,0.01538 -0.043,0.02325 0.002,5.58e-4 -0.004,0.0082 0.002,0.0055 0.0156,-0.0064 0.0271,-0.02032 0.041,-0.02855 z m -0.75987,2.35629 c -10e-4,0.0027 -10e-5,0.0027 -0.002,0.0055 0.003,-0.0018 0.007,-0.0037 0.01,-0.0055 -0.004,-3.6e-5 -0.003,4.6e-5 -0.008,0 z m 0.4278,0.0018 c -0.0156,0.0064 -0.009,0.0037 -0.0254,0.01071 -0.0303,0.01208 -0.12826,0.03203 -0.0977,0.02142 0.10512,-0.0357 0.10867,-0.03104 0.12307,-0.03222 z m -0.81262,0.421917 c -0.0159,0.0037 -0.0312,0.0027 -0.0469,0.0055 -10e-4,9.15e-4 -0.009,0.01025 -0.01,0.01071 0.0141,-0.0018 0.0368,-0.01043 0.0566,-0.01611 z m -0.0606,0.0073 c -0.0105,0.0018 -0.0208,0.0046 -0.0312,0.0055 0.003,0.0037 0.0145,0.0037 0.0234,0.0037 0.003,-0.0027 0.005,-0.0064 0.008,-0.0092 z m -0.44733,0.107269 c -0.0202,0.01199 -0.063,0.03534 -0.0879,0.05007 -0.001,0.05831 -5.4e-4,0.117447 -0.0117,0.173411 0.029,-0.01409 0.0587,-0.02727 0.0664,-0.05538 0.004,-0.01318 0.008,-0.04348 0.0117,-0.05904 -0.0146,0.0037 -0.0404,0.0082 -0.0312,0.0037 0.0106,-0.0055 0.0224,-0.0082 0.0332,-0.01254 0.007,-0.02691 0.0123,-0.0681 0.0195,-0.10012 z m -0.17971,0.109054 c -0.0477,0.02508 -0.0824,0.06673 -0.12502,0.09833 -1.6e-4,0.0037 -0.002,0.0073 -0.002,0.01071 0.0258,0.0046 0.0631,0.0098 0.0723,0.01254 -0.0247,0.02306 -0.0489,0.03332 -0.0801,0.05721 -0.004,0.03762 -0.005,0.07579 -0.0137,0.112623 0.004,-0.0027 0.01,-0.0055 0.0137,-0.0092 0.0443,-0.09436 0.23209,-0.333632 0.13479,-0.282475 z m -0.0977,0.0465 c -0.0106,0.0055 -0.0144,0.01016 -0.0254,0.01611 -9e-5,0.0046 1.2e-4,0.0082 0,0.01254 0.009,-0.0082 0.016,-0.02041 0.0254,-0.02855 z m -0.31255,0.370072 c -0.0387,9.16e-4 -0.048,2.29e-4 -0.0625,0.0018 -0.0261,0.01858 -0.0526,0.03955 -0.0703,0.05181 -0.0557,0.04723 0.0213,-0.0151 0.0293,-0.02499 0.007,-0.0082 0.013,-0.01785 0.0195,-0.02682 -0.008,2.65e-4 -0.0169,3.66e-4 -0.0293,0.0018 -0.0138,0.01254 -0.0287,0.02371 -0.043,0.03579 -0.0128,0.01492 -0.0238,0.02782 -0.0351,0.0411 0.0282,-0.0055 0.0558,-0.01382 0.084,-0.01968 0.0389,-0.02142 0.0872,-0.05209 0.10743,-0.06078 z m -0.35747,0.366494 c -0.045,0.0508 -0.0842,0.105456 -0.12501,0.159113 0.0144,-0.0097 0.0315,-0.01602 0.0449,-0.02682 0.0414,-0.03322 0.1145,-0.17137 0.0801,-0.132294 z m 24.9351,6.802488 c 5.10716,-0.01043 10.2513,1.32038 14.75986,4.074332 1.722,1.05158 3.42027,2.09691 5.10228,3.13934 1.03999,4.19901 3.63487,19.46264 -8.29412,35.38188 -17.21801,22.9783 -57.6258,37.45594 -116.9088,41.93409 0.359,-5.51326 0.55514,-10.82369 0.62314,-15.86653 35.201,-5.25424 53.39714,-25.57935 72.59014,-47.02923 3.866,-4.32073 7.86248,-8.78824 12.09347,-13.25816 5.1876,-5.48135 12.56973,-8.360509 20.03403,-8.375722 z m -134.165,14.891932 c 0.006,0.007 0.008,0.0172 0.0156,0.0233 0.007,0.005 -0.01,-0.0197 -0.01,-0.0233 z m 0.5157,0 c 0.017,0.002 0.0221,0.004 0.0449,0.005 v -0.002 c 0.0458,0.005 0.0675,0.0241 0.0996,0.0375 l -0.0312,-0.0411 c -0.0267,0 -0.0534,1e-5 -0.0801,0 z m -0.56453,0.15375 c -0.006,-0.008 -0.004,-9.1e-4 -0.002,0.009 0.004,3.9e-4 0.005,3.4e-4 0.01,-0.002 -10e-4,-0.002 -0.007,-0.005 -0.008,-0.007 z m -8.8899,1.7717 c -0.041,0.004 -0.0823,0.005 -0.12307,0.0107 -0.0278,0.004 0.0567,0.007 0.084,0.002 0.0135,-0.003 0.0259,-0.008 0.0391,-0.0125 z m -0.74621,0.23776 c -0.006,9.2e-4 -0.0117,0.003 -0.0176,0.004 -0.008,0.002 -0.009,0.002 -0.0137,0.004 -0.0212,0.005 -0.0251,0.007 -0.0332,0.009 0.0324,-0.007 0.0258,-0.002 0.0566,-0.009 0.003,-0.002 0.005,-0.005 0.008,-0.007 z m -0.0957,0.0786 c -0.0368,0.0132 -0.0737,0.0275 -0.10939,0.0429 -0.0299,0.0129 0.0626,-0.0203 0.0937,-0.0304 0.005,-0.005 0.0106,-0.008 0.0156,-0.0125 z m -5.68438,0.48806 c -0.004,0.004 -0.007,0.007 -0.0117,0.0125 l 0.006,0.009 c 0.007,-0.008 0.006,-0.007 0.0137,-0.0178 -0.002,-0.002 -0.005,-0.002 -0.008,-0.004 z m 4.20565,0.30214 c -0.0104,0.02 -0.023,0.0389 -0.0332,0.059 0.004,-0.005 0.009,-0.006 0.0137,-0.0143 0.009,-0.0134 0.0157,-0.0352 0.0195,-0.0447 z m 182.57025,0.28248 c 39.009,25.50519 64.29552,47.18227 70.56252,60.77189 7.801,16.91864 6.15838,35.33952 -4.75261,53.26858 -10.594,17.40829 -29.66322,33.40252 -53.85122,45.26829 -22.51455,-58.9735 -15.27871,-134.24 -11.95871,-159.30865 z M 201.1092,116.2186 c -0.005,7.8e-4 -0.009,-10e-5 -0.0137,0.002 -0.003,0.0115 -0.006,0.0235 -0.01,0.0358 0.001,-5e-5 0.003,2.7e-4 0.004,0 0.009,-0.002 0.01,-0.004 0.0176,-0.005 0.002,-0.0198 0.002,-0.0289 0.002,-0.0321 z m -0.043,0.10369 c -0.008,0.0229 -0.0118,0.0426 -0.0195,0.0643 0.004,-0.006 0.0136,-0.0229 0.0195,-0.0304 -0.001,-0.0109 -1e-4,-0.0224 0,-0.034 z m -0.0801,0.004 c -0.0114,0.0182 -0.0219,0.0371 -0.0332,0.0554 -0.001,0.0115 -0.004,0.0225 -0.006,0.0339 0.0101,-0.002 0.0212,-0.005 0.0312,-0.007 0.002,-0.005 0.004,-0.008 0.006,-0.0125 9.6e-4,-0.0233 -0.002,-0.0315 0.002,-0.0697 z m -1.05289,0.96002 c -0.0147,0.01 -0.0284,0.0205 -0.043,0.0304 0.0141,-0.005 0.0285,-0.009 0.041,-0.0143 0.001,-0.005 -1.2e-4,-0.0108 0.002,-0.0161 z m -0.27934,0.29857 c -0.002,4.9e-4 -0.008,-9e-5 -0.01,0.002 -0.0195,0.0198 -0.0411,0.0384 -0.0586,0.0589 -0.009,0.0111 0.0271,-0.0144 0.0371,-0.025 0.0108,-0.0116 0.0207,-0.0239 0.0312,-0.0358 z m -0.0566,0.009 c -0.005,9.2e-4 -0.0105,0.003 -0.0156,0.004 -3e-5,0.003 3e-5,0.006 0,0.009 0.0137,-0.002 -0.003,9.1e-4 0.0117,-0.002 0.002,-0.004 0.002,-0.007 0.004,-0.0107 z m -0.33012,0.27353 c -0.003,0.007 -0.007,0.0142 -0.01,0.0214 0.0209,-2.2e-4 0.032,9.1e-4 0.0859,-0.004 0.0128,-0.005 0.0263,-0.0102 0.0391,-0.0161 -0.0385,-9.1e-4 -0.0768,2.8e-4 -0.11525,-0.002 z m 166.49575,36.62796 c -1.596,35.65176 0.33995,84.77779 16.85195,126.95179 0.055,0.14094 0.13524,0.2668 0.19924,0.40225 -8.431,4.08552 -16.31301,8.06842 -23.849,12.12648 -17.09,-10.52039 -46.52866,-20.21641 -94.74166,-14.45238 -19.86101,2.37407 -40.40712,7.2827 -58.88512,13.83381 1.784,-2.4006 3.58265,-4.96909 5.37965,-7.73213 18.319,-28.16756 26.53878,-60.58223 29.81077,-89.32087 0.03,-0.002 0.0599,9.1e-4 0.0899,-0.002 60.94801,-4.30151 102.96631,-18.35886 125.14431,-41.80716 z m -75.9754,137.1868 c 1.30475,-0.0102 2.60588,-0.007 3.90093,0.009 18.837,0.2428 36.56713,3.36978 50.89182,10.38519 -19.313,11.40997 -37.08595,24.24366 -57.29896,42.05922 -43.641,38.46556 -99.82844,62.94322 -158.20944,68.92414 -56.963161,5.83633 -106.578366,-2.41657 -110.597367,-18.39622 -3.519,-13.99089 6.88556,-25.78985 37.110616,-42.08067 10.196,-5.49586 22.356507,-11.31435 35.438508,-17.31998 4.013,1.35452 13.392463,3.94562 26.470473,3.94562 15.73599,0 36.81492,-3.75481 60.29547,-17.92781 26.79713,-16.17557 71.55057,-29.28076 111.99795,-29.59844 z" />
	
	
	
	
	
</g>















</svg>
